<svg width="375" height="112" viewBox="0 0 375 112" fill="none" xmlns="http://www.w3.org/2000/svg">
<path d="M228.903 16.8003C231.207 16.8003 232.923 17.3403 234.051 18.4203C235.179 19.5003 235.743 21.0963 235.743 23.2083C235.743 24.3363 235.467 25.3323 234.915 26.1963C234.363 27.0363 233.547 27.6963 232.467 28.1763C231.387 28.6323 230.055 28.8603 228.471 28.8603L228.615 27.2403C229.359 27.2403 230.211 27.3483 231.171 27.5643C232.131 27.7563 233.055 28.1163 233.943 28.6443C234.855 29.1483 235.599 29.8683 236.175 30.8043C236.775 31.7163 237.075 32.8923 237.075 34.3323C237.075 35.9163 236.811 37.2123 236.283 38.2203C235.779 39.2283 235.107 40.0083 234.267 40.5603C233.427 41.1123 232.527 41.4963 231.567 41.7123C230.607 41.9043 229.683 42.0003 228.795 42.0003H219.831C219.207 42.0003 218.679 41.7963 218.247 41.3883C217.839 40.9563 217.635 40.4283 217.635 39.8043V18.9963C217.635 18.3723 217.839 17.8563 218.247 17.4483C218.679 17.0163 219.207 16.8003 219.831 16.8003H228.903ZM228.255 21.0483H221.847L222.315 20.4723V26.9883L221.883 26.6643H228.363C229.059 26.6643 229.683 26.4363 230.235 25.9803C230.787 25.5243 231.063 24.8643 231.063 24.0003C231.063 22.9683 230.799 22.2243 230.271 21.7683C229.767 21.2883 229.095 21.0483 228.255 21.0483ZM228.543 30.9123H221.991L222.315 30.6243V38.2203L221.955 37.8603H228.795C229.899 37.8603 230.775 37.5723 231.423 36.9963C232.071 36.3963 232.395 35.5083 232.395 34.3323C232.395 33.2523 232.179 32.4723 231.747 31.9923C231.315 31.5123 230.799 31.2123 230.199 31.0923C229.599 30.9723 229.047 30.9123 228.543 30.9123Z" fill="#060918"/>
<path d="M191.295 22.4521L183.519 40.7401C183.351 41.1961 183.087 41.5561 182.727 41.8201C182.391 42.0601 182.019 42.1801 181.611 42.1801C180.963 42.1801 180.483 42.0001 180.171 41.6401C179.859 41.2801 179.703 40.8361 179.703 40.3081C179.703 40.0921 179.739 39.8641 179.811 39.6241L188.775 18.0961C188.967 17.6161 189.255 17.2441 189.639 16.9801C190.047 16.7161 190.479 16.6081 190.935 16.6561C191.367 16.6561 191.763 16.7881 192.123 17.0521C192.507 17.2921 192.783 17.6401 192.951 18.0961L201.807 39.1921C201.927 39.5041 201.987 39.7921 201.987 40.0561C201.987 40.7041 201.771 41.2201 201.339 41.6041C200.931 41.9881 200.475 42.1801 199.971 42.1801C199.539 42.1801 199.143 42.0481 198.783 41.7841C198.447 41.5201 198.183 41.1601 197.991 40.7041L190.251 22.6681L191.295 22.4521ZM184.635 36.3481L186.615 32.2081H196.335L197.019 36.3481H184.635Z" fill="#060918"/>
<path d="M157.232 42.0003C156.56 42.0003 156.008 41.7963 155.576 41.3883C155.144 40.9563 154.928 40.4283 154.928 39.8043V18.9243H159.608V39.8043C159.608 40.4283 159.38 40.9563 158.924 41.3883C158.492 41.7963 157.928 42.0003 157.232 42.0003ZM149.276 20.9403C148.652 20.9403 148.124 20.7483 147.692 20.3643C147.284 19.9803 147.08 19.4763 147.08 18.8523C147.08 18.2283 147.284 17.7363 147.692 17.3763C148.124 16.9923 148.652 16.8003 149.276 16.8003H165.26C165.884 16.8003 166.4 16.9923 166.808 17.3763C167.24 17.7603 167.456 18.2643 167.456 18.8883C167.456 19.5123 167.24 20.0163 166.808 20.4003C166.4 20.7603 165.884 20.9403 165.26 20.9403H149.276Z" fill="#060918"/>
<path d="M360.229 66.7998H372.289C372.913 66.7998 373.429 67.0038 373.837 67.4118C374.269 67.7958 374.485 68.2998 374.485 68.9238C374.485 69.5238 374.269 70.0158 373.837 70.3998C373.429 70.7598 372.913 70.9398 372.289 70.9398H362.209L362.533 70.3278V77.3478L362.245 77.0598H370.669C371.293 77.0598 371.809 77.2638 372.217 77.6718C372.649 78.0558 372.865 78.5598 372.865 79.1838C372.865 79.7838 372.649 80.2758 372.217 80.6598C371.809 81.0198 371.293 81.1998 370.669 81.1998H362.353L362.533 80.9118V88.1838L362.245 87.8598H372.289C372.913 87.8598 373.429 88.0758 373.837 88.5078C374.269 88.9158 374.485 89.3958 374.485 89.9478C374.485 90.5478 374.269 91.0398 373.837 91.4238C373.429 91.8078 372.913 91.9998 372.289 91.9998H360.229C359.605 91.9998 359.077 91.7958 358.645 91.3878C358.237 90.9558 358.033 90.4278 358.033 89.8038V68.9958C358.033 68.3718 358.237 67.8558 358.645 67.4478C359.077 67.0158 359.605 66.7998 360.229 66.7998Z" fill="#7154E4"/>
<path d="M340.02 89.8038C340.02 90.4278 339.792 90.9558 339.336 91.3878C338.88 91.7958 338.352 91.9998 337.752 91.9998C337.08 91.9998 336.54 91.7958 336.132 91.3878C335.724 90.9558 335.52 90.4278 335.52 89.8038V68.9958C335.52 68.3718 335.736 67.8558 336.168 67.4478C336.6 67.0158 337.152 66.7998 337.824 66.7998C338.4 66.7998 338.904 67.0158 339.336 67.4478C339.792 67.8558 340.02 68.3718 340.02 68.9958V89.8038Z" fill="#7154E4"/>
<path d="M311.633 66.7998C312.881 66.7998 314.045 67.1598 315.125 67.8798C316.229 68.5998 317.117 69.5718 317.789 70.7958C318.461 72.0198 318.797 73.3878 318.797 74.8998C318.797 76.3878 318.461 77.7438 317.789 78.9678C317.117 80.1918 316.229 81.1758 315.125 81.9198C314.045 82.6398 312.881 82.9998 311.633 82.9998H305.009L305.369 82.3518V89.8038C305.369 90.4278 305.177 90.9558 304.793 91.3878C304.409 91.7958 303.905 91.9998 303.281 91.9998C302.681 91.9998 302.189 91.7958 301.805 91.3878C301.421 90.9558 301.229 90.4278 301.229 89.8038V68.9958C301.229 68.3718 301.433 67.8558 301.841 67.4478C302.273 67.0158 302.801 66.7998 303.425 66.7998H311.633ZM311.633 78.8958C312.089 78.8958 312.533 78.7038 312.965 78.3198C313.397 77.9358 313.757 77.4438 314.045 76.8438C314.333 76.2198 314.477 75.5718 314.477 74.8998C314.477 74.2038 314.333 73.5558 314.045 72.9558C313.757 72.3558 313.397 71.8758 312.965 71.5158C312.533 71.1318 312.089 70.9398 311.633 70.9398H304.937L305.369 70.2918V79.4718L304.973 78.8958H311.633Z" fill="#7154E4"/>
<path d="M281.138 66.7642C281.762 66.7642 282.266 66.9802 282.65 67.4122C283.034 67.8202 283.226 68.3362 283.226 68.9602V81.9922C283.226 83.9842 282.794 85.7482 281.93 87.2842C281.09 88.8202 279.926 90.0202 278.438 90.8842C276.95 91.7482 275.222 92.1802 273.254 92.1802C271.286 92.1802 269.546 91.7482 268.034 90.8842C266.546 90.0202 265.37 88.8202 264.506 87.2842C263.666 85.7482 263.246 83.9842 263.246 81.9922V68.9602C263.246 68.3362 263.462 67.8202 263.894 67.4122C264.326 66.9802 264.878 66.7642 265.55 66.7642C266.102 66.7642 266.594 66.9802 267.026 67.4122C267.482 67.8202 267.71 68.3362 267.71 68.9602V81.9922C267.71 83.1922 267.962 84.2362 268.466 85.1242C268.994 85.9882 269.678 86.6602 270.518 87.1402C271.382 87.6202 272.294 87.8602 273.254 87.8602C274.286 87.8602 275.246 87.6202 276.134 87.1402C277.022 86.6602 277.742 85.9882 278.294 85.1242C278.846 84.2362 279.122 83.1922 279.122 81.9922V68.9602C279.122 68.3362 279.302 67.8202 279.662 67.4122C280.022 66.9802 280.514 66.7642 281.138 66.7642Z" fill="#7154E4"/>
<path d="M246.512 79.3999C246.512 81.1999 246.212 82.8799 245.612 84.4399C245.012 85.9999 244.16 87.3799 243.056 88.5799C241.976 89.7559 240.68 90.6799 239.168 91.3519C237.68 92.0239 236.048 92.3599 234.272 92.3599C232.496 92.3599 230.864 92.0239 229.376 91.3519C227.888 90.6799 226.592 89.7559 225.488 88.5799C224.408 87.3799 223.568 85.9999 222.968 84.4399C222.368 82.8799 222.068 81.1999 222.068 79.3999C222.068 77.5999 222.368 75.9199 222.968 74.3599C223.568 72.7999 224.408 71.4319 225.488 70.2559C226.592 69.0559 227.888 68.1199 229.376 67.4479C230.864 66.7759 232.496 66.4399 234.272 66.4399C236.048 66.4399 237.68 66.7759 239.168 67.4479C240.68 68.1199 241.976 69.0559 243.056 70.2559C244.16 71.4319 245.012 72.7999 245.612 74.3599C246.212 75.9199 246.512 77.5999 246.512 79.3999ZM241.832 79.3999C241.832 77.7919 241.508 76.3399 240.86 75.0439C240.212 73.7239 239.324 72.6799 238.196 71.9119C237.068 71.1439 235.76 70.7599 234.272 70.7599C232.784 70.7599 231.476 71.1439 230.348 71.9119C229.22 72.6799 228.332 73.7119 227.684 75.0079C227.06 76.3039 226.748 77.7679 226.748 79.3999C226.748 81.0079 227.06 82.4719 227.684 83.7919C228.332 85.0879 229.22 86.1199 230.348 86.8879C231.476 87.6559 232.784 88.0399 234.272 88.0399C235.76 88.0399 237.068 87.6559 238.196 86.8879C239.324 86.1199 240.212 85.0879 240.86 83.7919C241.508 82.4719 241.832 81.0079 241.832 79.3999Z" fill="#7154E4"/>
<path d="M188.957 91.9998C188.285 91.9998 187.685 91.7958 187.157 91.3878C186.629 90.9558 186.365 90.4278 186.365 89.8038V68.9958C186.365 68.3718 186.569 67.8558 186.977 67.4478C187.409 67.0158 187.937 66.7998 188.561 66.7998H198.929C200.177 66.7998 201.341 67.1358 202.421 67.8078C203.525 68.4558 204.413 69.3678 205.085 70.5438C205.757 71.6958 206.093 73.0278 206.093 74.5398C206.093 75.4518 205.901 76.3398 205.517 77.2038C205.157 78.0678 204.653 78.8478 204.005 79.5438C203.381 80.2398 202.673 80.7798 201.881 81.1638L201.917 80.3358C202.589 80.6958 203.141 81.1278 203.573 81.6318C204.029 82.1118 204.377 82.6398 204.617 83.2158C204.881 83.7678 205.037 84.3678 205.085 85.0158C205.181 85.6158 205.241 86.1438 205.265 86.5998C205.313 87.0558 205.385 87.4398 205.481 87.7518C205.601 88.0638 205.817 88.3038 206.129 88.4718C206.657 88.7838 206.981 89.2398 207.101 89.8398C207.245 90.4158 207.113 90.9318 206.705 91.3878C206.441 91.6998 206.105 91.9038 205.697 91.9998C205.289 92.0718 204.881 92.0718 204.473 91.9998C204.065 91.9038 203.729 91.7838 203.465 91.6398C203.057 91.3998 202.649 91.0518 202.241 90.5958C201.833 90.1158 201.497 89.4798 201.233 88.6878C200.993 87.8958 200.873 86.8758 200.873 85.6278C200.873 85.2198 200.801 84.8478 200.657 84.5118C200.513 84.1518 200.309 83.8518 200.045 83.6118C199.781 83.3478 199.445 83.1558 199.037 83.0358C198.629 82.8918 198.149 82.8198 197.597 82.8198H190.325L190.865 81.9918V89.8038C190.865 90.4278 190.697 90.9558 190.361 91.3878C190.025 91.7958 189.557 91.9998 188.957 91.9998ZM190.361 79.1118H198.749C199.181 79.1118 199.601 78.9198 200.009 78.5358C200.417 78.1278 200.753 77.5878 201.017 76.9158C201.281 76.2198 201.413 75.4638 201.413 74.6478C201.413 73.5918 201.125 72.7158 200.549 72.0198C199.997 71.2998 199.397 70.9398 198.749 70.9398H190.433L190.865 69.7878V79.9758L190.361 79.1118Z" fill="#7154E4"/>
<path d="M160.579 92.3599C158.755 92.3599 157.051 92.0239 155.467 91.3519C153.883 90.6799 152.491 89.7559 151.291 88.5799C150.091 87.3799 149.143 85.9999 148.447 84.4399C147.775 82.8799 147.439 81.1999 147.439 79.3999C147.439 77.5999 147.775 75.9199 148.447 74.3599C149.143 72.7999 150.091 71.4319 151.291 70.2559C152.491 69.0559 153.883 68.1199 155.467 67.4479C157.051 66.7759 158.755 66.4399 160.579 66.4399C161.707 66.4399 162.799 66.5599 163.855 66.7999C164.911 67.0399 165.883 67.3999 166.771 67.8799C167.131 68.0719 167.395 68.3359 167.563 68.6719C167.755 68.9839 167.851 69.3079 167.851 69.6439C167.851 70.2199 167.659 70.7359 167.275 71.1919C166.891 71.6479 166.399 71.8759 165.799 71.8759C165.607 71.8759 165.403 71.8519 165.187 71.8039C164.995 71.7559 164.803 71.6839 164.611 71.5879C164.011 71.3239 163.375 71.1199 162.703 70.9759C162.031 70.8319 161.323 70.7599 160.579 70.7599C159.019 70.7599 157.591 71.1559 156.295 71.9479C155.023 72.7159 154.003 73.7599 153.235 75.0799C152.491 76.3759 152.119 77.8159 152.119 79.3999C152.119 80.9599 152.491 82.3999 153.235 83.7199C154.003 85.0399 155.023 86.0959 156.295 86.8879C157.591 87.6559 159.019 88.0399 160.579 88.0399C161.299 88.0399 162.091 87.9679 162.955 87.8239C163.819 87.6799 164.527 87.4879 165.079 87.2479L164.755 88.3279V82.1719L165.367 82.7119H161.371C160.747 82.7119 160.219 82.5079 159.787 82.0999C159.379 81.6919 159.175 81.1759 159.175 80.5519C159.175 79.9279 159.379 79.4119 159.787 79.0039C160.219 78.5959 160.747 78.3919 161.371 78.3919H167.275C167.899 78.3919 168.415 78.6079 168.823 79.0399C169.231 79.4479 169.435 79.9639 169.435 80.5879V88.2199C169.435 88.6999 169.315 89.0959 169.075 89.4079C168.859 89.7199 168.607 89.9719 168.319 90.1639C167.215 90.8359 166.003 91.3759 164.683 91.7839C163.387 92.1679 162.019 92.3599 160.579 92.3599Z" fill="#7154E4"/>
<rect width="112" height="112" rx="16" fill="url(#paint0_linear_3886_4074)"/>
<rect x="21" y="17.2002" width="70" height="16" rx="6" fill="white"/>
<rect x="44" y="45.2002" width="23" height="16" rx="6" fill="white"/>
<rect x="57" y="73.2002" width="21" height="16" rx="6" fill="white"/>
<path d="M28.3809 63.8398L30.5111 70.2439C31.6054 73.5338 34.1869 76.1153 37.4768 77.2096L43.8809 79.3398L37.4768 81.4701C34.1869 82.5644 31.6054 85.1459 30.5111 88.4358L28.3809 94.8398L26.2506 88.4358C25.1563 85.1459 22.5748 82.5644 19.2849 81.4701L12.8809 79.3398L19.2849 77.2096C22.5748 76.1153 25.1563 73.5338 26.2506 70.2439L28.3809 63.8398Z" fill="white"/>
<path d="M90.5 45.2002L91.1326 47.1019C92.2269 50.3918 94.8084 52.9733 98.0983 54.0676L100 54.7002L98.0983 55.3328C94.8084 56.4271 92.2269 59.0086 91.1326 62.2985L90.5 64.2002L89.8674 62.2985C88.7731 59.0086 86.1916 56.4271 82.9017 55.3328L81 54.7002L82.9017 54.0676C86.1916 52.9733 88.7731 50.3918 89.8674 47.1019L90.5 45.2002Z" fill="white"/>
<defs>
<linearGradient id="paint0_linear_3886_4074" x1="14.5" y1="13" x2="92.5" y2="92" gradientUnits="userSpaceOnUse">
<stop stop-color="#6347D3"/>
<stop offset="1" stop-color="#150097"/>
</linearGradient>
</defs>
</svg>
