<svg width="597" height="112" viewBox="0 0 597 112" fill="none" xmlns="http://www.w3.org/2000/svg">
<path d="M256.536 40.3999C259.608 40.3999 261.896 41.1199 263.4 42.5599C264.904 43.9999 265.656 46.1279 265.656 48.9439C265.656 50.4479 265.288 51.7759 264.552 52.9279C263.816 54.0479 262.728 54.9279 261.288 55.5679C259.848 56.1759 258.072 56.4799 255.96 56.4799L256.152 54.3199C257.144 54.3199 258.28 54.4639 259.56 54.7519C260.84 55.0079 262.072 55.4879 263.256 56.1919C264.472 56.8639 265.464 57.8239 266.232 59.0719C267.032 60.2879 267.432 61.8559 267.432 63.7759C267.432 65.8879 267.08 67.6159 266.376 68.9599C265.704 70.3039 264.808 71.3439 263.688 72.0799C262.568 72.8159 261.368 73.3279 260.088 73.6159C258.808 73.8719 257.576 73.9999 256.392 73.9999H244.44C243.608 73.9999 242.904 73.7279 242.328 73.1839C241.784 72.6079 241.512 71.9039 241.512 71.0719V43.3279C241.512 42.4959 241.784 41.8079 242.328 41.2639C242.904 40.6879 243.608 40.3999 244.44 40.3999H256.536ZM255.672 46.0639H247.128L247.752 45.2959V53.9839L247.176 53.5519H255.816C256.744 53.5519 257.576 53.2479 258.312 52.6399C259.048 52.0319 259.416 51.1519 259.416 49.9999C259.416 48.6239 259.064 47.6319 258.36 47.0239C257.688 46.3839 256.792 46.0639 255.672 46.0639ZM256.056 59.2159H247.32L247.752 58.8319V68.9599L247.272 68.4799H256.392C257.864 68.4799 259.032 68.0959 259.896 67.3279C260.76 66.5279 261.192 65.3439 261.192 63.7759C261.192 62.3359 260.904 61.2959 260.328 60.6559C259.752 60.0159 259.064 59.6159 258.264 59.4559C257.464 59.2959 256.728 59.2159 256.056 59.2159Z" fill="white"/>
<path d="M206.392 47.9361L196.024 72.3201C195.8 72.9281 195.448 73.4081 194.968 73.7601C194.52 74.0801 194.024 74.2401 193.48 74.2401C192.616 74.2401 191.976 74.0001 191.56 73.5201C191.144 73.0401 190.936 72.4481 190.936 71.7441C190.936 71.4561 190.984 71.1521 191.08 70.8321L203.032 42.1281C203.288 41.4881 203.672 40.9921 204.184 40.6401C204.728 40.2881 205.304 40.1441 205.912 40.2081C206.488 40.2081 207.016 40.3841 207.496 40.7361C208.008 41.0561 208.376 41.5201 208.6 42.1281L220.408 70.2561C220.568 70.6721 220.648 71.0561 220.648 71.4081C220.648 72.2721 220.36 72.9601 219.784 73.4721C219.24 73.9841 218.632 74.2401 217.96 74.2401C217.384 74.2401 216.856 74.0641 216.376 73.7121C215.928 73.3601 215.576 72.8801 215.32 72.2721L205 48.2241L206.392 47.9361ZM197.512 66.4641L200.152 60.9441H213.112L214.024 66.4641H197.512Z" fill="white"/>
<path d="M160.975 73.9999C160.079 73.9999 159.343 73.7279 158.767 73.1839C158.191 72.6079 157.903 71.9039 157.903 71.0719V43.2319H164.143V71.0719C164.143 71.9039 163.839 72.6079 163.231 73.1839C162.655 73.7279 161.903 73.9999 160.975 73.9999ZM150.367 45.9199C149.535 45.9199 148.831 45.6639 148.255 45.1519C147.711 44.6399 147.439 43.9679 147.439 43.1359C147.439 42.3039 147.711 41.6479 148.255 41.1679C148.831 40.6559 149.535 40.3999 150.367 40.3999H171.679C172.511 40.3999 173.199 40.6559 173.743 41.1679C174.319 41.6799 174.607 42.3519 174.607 43.1839C174.607 44.0159 174.319 44.6879 173.743 45.1999C173.199 45.6799 172.511 45.9199 171.679 45.9199H150.367Z" fill="white"/>
<path d="M577.641 40.3999H593.721C594.553 40.3999 595.241 40.6719 595.785 41.2159C596.361 41.7279 596.649 42.3999 596.649 43.2319C596.649 44.0319 596.361 44.6879 595.785 45.1999C595.241 45.6799 594.553 45.9199 593.721 45.9199H580.281L580.713 45.1039V54.4639L580.329 54.0799H591.561C592.393 54.0799 593.081 54.3519 593.625 54.8959C594.201 55.4079 594.489 56.0799 594.489 56.9119C594.489 57.7119 594.201 58.3679 593.625 58.8799C593.081 59.3599 592.393 59.5999 591.561 59.5999H580.473L580.713 59.2159V68.9119L580.329 68.4799H593.721C594.553 68.4799 595.241 68.7679 595.785 69.3439C596.361 69.8879 596.649 70.5279 596.649 71.2639C596.649 72.0639 596.361 72.7199 595.785 73.2319C595.241 73.7439 594.553 73.9999 593.721 73.9999H577.641C576.809 73.9999 576.105 73.7279 575.529 73.1839C574.985 72.6079 574.713 71.9039 574.713 71.0719V43.3279C574.713 42.4959 574.985 41.8079 575.529 41.2639C576.105 40.6879 576.809 40.3999 577.641 40.3999Z" fill="#846AED"/>
<path d="M550.693 71.0719C550.693 71.9039 550.389 72.6079 549.781 73.1839C549.173 73.7279 548.469 73.9999 547.669 73.9999C546.773 73.9999 546.053 73.7279 545.509 73.1839C544.965 72.6079 544.693 71.9039 544.693 71.0719V43.3279C544.693 42.4959 544.981 41.8079 545.557 41.2639C546.133 40.6879 546.869 40.3999 547.765 40.3999C548.533 40.3999 549.205 40.6879 549.781 41.2639C550.389 41.8079 550.693 42.4959 550.693 43.3279V71.0719Z" fill="#846AED"/>
<path d="M512.845 40.3999C514.509 40.3999 516.061 40.8799 517.501 41.8399C518.973 42.7999 520.157 44.0959 521.053 45.7279C521.949 47.3599 522.397 49.1839 522.397 51.1999C522.397 53.1839 521.949 54.9919 521.053 56.6239C520.157 58.2559 518.973 59.5679 517.501 60.5599C516.061 61.5199 514.509 61.9999 512.845 61.9999H504.013L504.493 61.1359V71.0719C504.493 71.9039 504.237 72.6079 503.725 73.1839C503.213 73.7279 502.541 73.9999 501.709 73.9999C500.909 73.9999 500.253 73.7279 499.741 73.1839C499.229 72.6079 498.973 71.9039 498.973 71.0719V43.3279C498.973 42.4959 499.245 41.8079 499.789 41.2639C500.365 40.6879 501.069 40.3999 501.901 40.3999H512.845ZM512.845 56.5279C513.453 56.5279 514.045 56.2719 514.621 55.7599C515.197 55.2479 515.677 54.5919 516.061 53.7919C516.445 52.9599 516.637 52.0959 516.637 51.1999C516.637 50.2719 516.445 49.4079 516.061 48.6079C515.677 47.8079 515.197 47.1679 514.621 46.6879C514.045 46.1759 513.453 45.9199 512.845 45.9199H503.917L504.493 45.0559V57.2959L503.965 56.5279H512.845Z" fill="#846AED"/>
<path d="M472.184 40.3521C473.016 40.3521 473.688 40.6401 474.2 41.2161C474.712 41.7601 474.968 42.4481 474.968 43.2801V60.6561C474.968 63.3121 474.392 65.6641 473.24 67.7121C472.12 69.7601 470.568 71.3601 468.584 72.5121C466.6 73.6641 464.296 74.2401 461.672 74.2401C459.048 74.2401 456.728 73.6641 454.712 72.5121C452.728 71.3601 451.16 69.7601 450.008 67.7121C448.888 65.6641 448.328 63.3121 448.328 60.6561V43.2801C448.328 42.4481 448.616 41.7601 449.192 41.2161C449.768 40.6401 450.504 40.3521 451.4 40.3521C452.136 40.3521 452.792 40.6401 453.368 41.2161C453.976 41.7601 454.28 42.4481 454.28 43.2801V60.6561C454.28 62.2561 454.616 63.6481 455.288 64.8321C455.992 65.9841 456.904 66.8801 458.024 67.5201C459.176 68.1601 460.392 68.4801 461.672 68.4801C463.048 68.4801 464.328 68.1601 465.512 67.5201C466.696 66.8801 467.656 65.9841 468.392 64.8321C469.128 63.6481 469.496 62.2561 469.496 60.6561V43.2801C469.496 42.4481 469.736 41.7601 470.216 41.2161C470.696 40.6401 471.352 40.3521 472.184 40.3521Z" fill="#846AED"/>
<path d="M426.018 57.1999C426.018 59.5999 425.618 61.8399 424.818 63.9199C424.018 65.9999 422.882 67.8399 421.41 69.4399C419.97 71.0079 418.242 72.2399 416.226 73.1359C414.242 74.0319 412.066 74.4799 409.698 74.4799C407.33 74.4799 405.154 74.0319 403.17 73.1359C401.186 72.2399 399.458 71.0079 397.986 69.4399C396.546 67.8399 395.426 65.9999 394.626 63.9199C393.826 61.8399 393.426 59.5999 393.426 57.1999C393.426 54.7999 393.826 52.5599 394.626 50.4799C395.426 48.3999 396.546 46.5759 397.986 45.0079C399.458 43.4079 401.186 42.1599 403.17 41.2639C405.154 40.3679 407.33 39.9199 409.698 39.9199C412.066 39.9199 414.242 40.3679 416.226 41.2639C418.242 42.1599 419.97 43.4079 421.41 45.0079C422.882 46.5759 424.018 48.3999 424.818 50.4799C425.618 52.5599 426.018 54.7999 426.018 57.1999ZM419.778 57.1999C419.778 55.0559 419.346 53.1199 418.482 51.3919C417.618 49.6319 416.434 48.2399 414.93 47.2159C413.426 46.1919 411.682 45.6799 409.698 45.6799C407.714 45.6799 405.97 46.1919 404.466 47.2159C402.962 48.2399 401.778 49.6159 400.914 51.3439C400.082 53.0719 399.666 55.0239 399.666 57.1999C399.666 59.3439 400.082 61.2959 400.914 63.0559C401.778 64.7839 402.962 66.1599 404.466 67.1839C405.97 68.2079 407.714 68.7199 409.698 68.7199C411.682 68.7199 413.426 68.2079 414.93 67.1839C416.434 66.1599 417.618 64.7839 418.482 63.0559C419.346 61.2959 419.778 59.3439 419.778 57.1999Z" fill="#846AED"/>
<path d="M349.278 73.9999C348.382 73.9999 347.582 73.7279 346.878 73.1839C346.174 72.6079 345.822 71.9039 345.822 71.0719V43.3279C345.822 42.4959 346.094 41.8079 346.638 41.2639C347.214 40.6879 347.918 40.3999 348.75 40.3999H362.574C364.238 40.3999 365.79 40.8479 367.23 41.7439C368.702 42.6079 369.886 43.8239 370.782 45.3919C371.678 46.9279 372.126 48.7039 372.126 50.7199C372.126 51.9359 371.87 53.1199 371.358 54.2719C370.878 55.4239 370.206 56.4639 369.342 57.3919C368.51 58.3199 367.566 59.0399 366.51 59.5519L366.558 58.4479C367.454 58.9279 368.19 59.5039 368.766 60.1759C369.374 60.8159 369.838 61.5199 370.158 62.2879C370.51 63.0239 370.718 63.8239 370.782 64.6879C370.91 65.4879 370.99 66.1919 371.022 66.7999C371.086 67.4079 371.182 67.9199 371.31 68.3359C371.47 68.7519 371.758 69.0719 372.174 69.2959C372.878 69.7119 373.31 70.3199 373.47 71.1199C373.662 71.8879 373.486 72.5759 372.942 73.1839C372.59 73.5999 372.142 73.8719 371.598 73.9999C371.054 74.0959 370.51 74.0959 369.966 73.9999C369.422 73.8719 368.974 73.7119 368.622 73.5199C368.078 73.1999 367.534 72.7359 366.99 72.1279C366.446 71.4879 365.998 70.6399 365.646 69.5839C365.326 68.5279 365.166 67.1679 365.166 65.5039C365.166 64.9599 365.07 64.4639 364.878 64.0159C364.686 63.5359 364.414 63.1359 364.062 62.8159C363.71 62.4639 363.262 62.2079 362.718 62.0479C362.174 61.8559 361.534 61.7599 360.798 61.7599H351.102L351.822 60.6559V71.0719C351.822 71.9039 351.598 72.6079 351.15 73.1839C350.702 73.7279 350.078 73.9999 349.278 73.9999ZM351.15 56.8159H362.334C362.91 56.8159 363.47 56.5599 364.014 56.0479C364.558 55.5039 365.006 54.7839 365.358 53.8879C365.71 52.9599 365.886 51.9519 365.886 50.8639C365.886 49.4559 365.502 48.2879 364.734 47.3599C363.998 46.3999 363.198 45.9199 362.334 45.9199H351.246L351.822 44.3839V57.9679L351.15 56.8159Z" fill="#846AED"/>
<path d="M311.44 74.4799C309.008 74.4799 306.736 74.0319 304.624 73.1359C302.512 72.2399 300.656 71.0079 299.056 69.4399C297.456 67.8399 296.192 65.9999 295.264 63.9199C294.368 61.8399 293.92 59.5999 293.92 57.1999C293.92 54.7999 294.368 52.5599 295.264 50.4799C296.192 48.3999 297.456 46.5759 299.056 45.0079C300.656 43.4079 302.512 42.1599 304.624 41.2639C306.736 40.3679 309.008 39.9199 311.44 39.9199C312.944 39.9199 314.4 40.0799 315.808 40.3999C317.216 40.7199 318.512 41.1999 319.696 41.8399C320.176 42.0959 320.528 42.4479 320.752 42.8959C321.008 43.3119 321.136 43.7439 321.136 44.1919C321.136 44.9599 320.88 45.6479 320.368 46.2559C319.856 46.8639 319.2 47.1679 318.4 47.1679C318.144 47.1679 317.872 47.1359 317.584 47.0719C317.328 47.0079 317.072 46.9119 316.816 46.7839C316.016 46.4319 315.168 46.1599 314.272 45.9679C313.376 45.7759 312.432 45.6799 311.44 45.6799C309.36 45.6799 307.456 46.2079 305.728 47.2639C304.032 48.2879 302.672 49.6799 301.648 51.4399C300.656 53.1679 300.16 55.0879 300.16 57.1999C300.16 59.2799 300.656 61.1999 301.648 62.9599C302.672 64.7199 304.032 66.1279 305.728 67.1839C307.456 68.2079 309.36 68.7199 311.44 68.7199C312.4 68.7199 313.456 68.6239 314.608 68.4319C315.76 68.2399 316.704 67.9839 317.44 67.6639L317.008 69.1039V60.8959L317.824 61.6159H312.496C311.664 61.6159 310.96 61.3439 310.384 60.7999C309.84 60.2559 309.568 59.5679 309.568 58.7359C309.568 57.9039 309.84 57.2159 310.384 56.6719C310.96 56.1279 311.664 55.8559 312.496 55.8559H320.368C321.2 55.8559 321.888 56.1439 322.432 56.7199C322.976 57.2639 323.248 57.9519 323.248 58.7839V68.9599C323.248 69.5999 323.088 70.1279 322.768 70.5439C322.48 70.9599 322.144 71.2959 321.76 71.5519C320.288 72.4479 318.672 73.1679 316.912 73.7119C315.184 74.2239 313.36 74.4799 311.44 74.4799Z" fill="#846AED"/>
<rect width="112" height="112" rx="16" fill="url(#paint0_linear_3886_4047)"/>
<rect x="21" y="17.2002" width="70" height="16" rx="6" fill="white"/>
<rect x="44" y="45.2002" width="23" height="16" rx="6" fill="white"/>
<rect x="57" y="73.2002" width="21" height="16" rx="6" fill="white"/>
<path d="M28.3809 63.8398L30.5111 70.2439C31.6054 73.5338 34.1869 76.1153 37.4768 77.2096L43.8809 79.3398L37.4768 81.4701C34.1869 82.5644 31.6054 85.1459 30.5111 88.4358L28.3809 94.8398L26.2506 88.4358C25.1563 85.1459 22.5748 82.5644 19.2849 81.4701L12.8809 79.3398L19.2849 77.2096C22.5748 76.1153 25.1563 73.5338 26.2506 70.2439L28.3809 63.8398Z" fill="white"/>
<path d="M90.5 45.2002L91.1326 47.1019C92.2269 50.3918 94.8084 52.9733 98.0983 54.0676L100 54.7002L98.0983 55.3328C94.8084 56.4271 92.2269 59.0086 91.1326 62.2985L90.5 64.2002L89.8674 62.2985C88.7731 59.0086 86.1916 56.4271 82.9017 55.3328L81 54.7002L82.9017 54.0676C86.1916 52.9733 88.7731 50.3918 89.8674 47.1019L90.5 45.2002Z" fill="white"/>
<defs>
<linearGradient id="paint0_linear_3886_4047" x1="14.5" y1="13" x2="92.5" y2="92" gradientUnits="userSpaceOnUse">
<stop stop-color="#6347D3"/>
<stop offset="1" stop-color="#150097"/>
</linearGradient>
</defs>
</svg>
